<svg xmlns="http://www.w3.org/2000/svg" viewBox="0 0 512 512">
  <defs>
    <linearGradient id="bg" x1="0" y1="0" x2="1" y2="1">
      <stop offset="0" stop-color="#2d6a4f"/>
      <stop offset="1" stop-color="#1b4d3e"/>
    </linearGradient>
    <linearGradient id="leaf" x1="0" y1="0" x2="0" y2="1">
      <stop offset="0" stop-color="#a3e6c4"/>
      <stop offset="1" stop-color="#52b687"/>
    </linearGradient>
    <linearGradient id="drop" x1="0" y1="0" x2="0" y2="1">
      <stop offset="0" stop-color="#cfe8f8"/>
      <stop offset="1" stop-color="#5fa5dc"/>
    </linearGradient>
  </defs>
  <rect width="512" height="512" rx="112" fill="url(#bg)"/>
  <path d="M256 360 C 200 296, 168 248, 168 200 A 88 88 0 0 1 344 200 C 344 248, 312 296, 256 360 Z"
        fill="url(#leaf)" opacity="0.95"/>
  <path d="M256 200 C 252 240, 248 290, 256 360 C 264 290, 260 240, 256 200 Z"
        fill="#0e2a1f" opacity="0.18"/>
  <path d="M256 380 C 230 416, 218 432, 218 444 A 38 38 0 0 0 294 444 C 294 432, 282 416, 256 380 Z"
        fill="url(#drop)"/>
  <ellipse cx="244" cy="432" rx="8" ry="14" fill="#ffffff" opacity="0.55"/>
</svg>
